# xmcd
#
# Track frame offsets:
#	225
#	12557
#	27648
#	47370
#	64519
#	80122
#	95952
#	115731
#	138832
#	154683
#	172639
#	194344
#	208748
#	228458
#	239138
#	258485
#
# Disc length: 3745 seconds
#
# Revision: 1
# Processed by: cddbd v1.5PL3 Copyright (c) Steve Scherf et al.
# Submitted via: EasyCDDAExtractor 6.5.2.1
#
DISCID=df0e9e10
DTITLE=John Boutte - Jambalaya
DYEAR=2003
DGENRE=Soul
TTITLE0=Two Bands Rollin'
TTITLE1=It Don't Cost Very Much
TTITLE2=A Change is Gonna Come
TTITLE3=Shake My Gate
TTITLE4=Sisters
TTITLE5=All These Things That Make You Mine
TTITLE6=Treme Song
TTITLE7=Battle Hymn Of the Republic
TTITLE8=That's My Desire
TTITLE9=Hey, That's No Way to Say Goodbye
TTITLE10=At the Foot of Canal Street
TTITLE11=Didn't It Rain
TTITLE12=Why
TTITLE13=Hot Time In the Old Town Tonight
TTITLE14=If I Had My Life To Live Over
TTITLE15=I Washed My Hands In Muddy Water
EXTD=
EXTT0=
EXTT1=
EXTT2=
EXTT3=
EXTT4=
EXTT5=
EXTT6=
EXTT7=
EXTT8=
EXTT9=
EXTT10=
EXTT11=
EXTT12=
EXTT13=
EXTT14=
EXTT15=
PLAYORDER=
